<svg id="Layer_1" data-name="Layer 1" xmlns="http://www.w3.org/2000/svg" viewBox="0 0 717.09 352.37"><defs><style>.cls-1{fill:#fff;}.cls-2{fill:none;}.cls-2,.cls-3,.cls-4{stroke:#000;stroke-miterlimit:10;stroke-width:12.58px;}.cls-3{fill:red;}.cls-4{fill:blue;}</style></defs><title>logotribu</title><rect class="cls-1" x="6.23" y="6.36" width="704.05" height="339.78"/><path d="M641.38,573.59v45H616.25v-45H568.19V548.73l46.95-114.35h26.24V549h17.4v24.58Zm-25.13-93.36L590.56,549h25.69Z" transform="translate(-175.9 -301.35)"/><path d="M749.43,570.55v3.31a123.73,123.73,0,0,1-1.66,16.44,33.94,33.94,0,0,1-6.63,15.05,37.92,37.92,0,0,1-14.22,11.74,42.61,42.61,0,0,1-36,0,37.74,37.74,0,0,1-14.36-11.74,33.94,33.94,0,0,1-6.63-15.05,123.73,123.73,0,0,1-1.66-16.44V486a176.89,176.89,0,0,1,1.11-20.16,38.74,38.74,0,0,1,7.18-18.23,34.55,34.55,0,0,1,14.23-12,43.12,43.12,0,0,1,36.32,0,34.78,34.78,0,0,1,14.08,12A36.46,36.46,0,0,1,748.46,466q1,9.81,1,20v84.52Zm-26.24-87.28v-8.84A36.56,36.56,0,0,0,720,461.87q-2.62-5.67-11.18-5.67t-11.19,5.67a36.56,36.56,0,0,0-3.18,12.56V578.84a36.56,36.56,0,0,0,3.18,12.56q2.63,5.67,11.19,5.67T720,591.4a36.56,36.56,0,0,0,3.18-12.56V483.27Z" transform="translate(-175.9 -301.35)"/><path d="M842.31,570.55v3.31a123.73,123.73,0,0,1-1.66,16.44A34,34,0,0,1,834,605.35a38,38,0,0,1-14.23,11.74,42.59,42.59,0,0,1-36,0,37.69,37.69,0,0,1-14.37-11.74,33.94,33.94,0,0,1-6.63-15.05,122.07,122.07,0,0,1-1.65-16.44V486a176.93,176.93,0,0,1,1.1-20.16,38.84,38.84,0,0,1,7.18-18.23,34.55,34.55,0,0,1,14.23-12,43.12,43.12,0,0,1,36.32,0,34.87,34.87,0,0,1,14.09,12A36.55,36.55,0,0,1,841.35,466q1,9.81,1,20v84.52Zm-26.24-87.28v-8.84a36.78,36.78,0,0,0-3.17-12.56q-2.64-5.67-11.19-5.67t-11.19,5.67a36.33,36.33,0,0,0-3.17,12.56V578.84a36.33,36.33,0,0,0,3.17,12.56q2.63,5.67,11.19,5.67t11.19-5.67a36.78,36.78,0,0,0,3.17-12.56V483.27Z" transform="translate(-175.9 -301.35)"/><rect class="cls-2" x="358.41" y="100.1" width="352.12" height="245.93"/><rect class="cls-3" x="6.34" y="252.6" width="352.12" height="93.48"/><rect class="cls-4" x="358.68" y="6.29" width="352.12" height="93.48"/><path d="M232.13,525V340.76h27.62V499.3H305.6V525Z" transform="translate(-175.9 -301.35)"/><path d="M485.1,513.94q-11.75,13.54-32.18,13.54-21.82,0-33.56-14.37T407.07,478l26.52-4.42c0,.92,0,1.84.13,2.76s.14,1.84.14,2.76a38.48,38.48,0,0,0,5,15.74q4.14,7.19,14.36,7.18,8.85,0,12.85-6.21a25.18,25.18,0,0,0,4-14,29.23,29.23,0,0,0-5.24-17,99.81,99.81,0,0,0-13-15.06q-2.76-2.49-5.8-5.38c-2-1.94-4.05-3.82-6.07-5.67a152.55,152.55,0,0,1-21-23.33q-9.4-12.86-9.4-31.91,0-19.6,11.61-32.59t31.76-13q20.71,0,30.24,12.71t11.47,31.48l-26.52,3.87v-.69a.94.94,0,0,0-.28-.69,47,47,0,0,0-3.72-14.23Q461.2,364,451.81,364q-7.72,0-11.6,5.53a21.58,21.58,0,0,0-3.86,12.7A30.75,30.75,0,0,0,442,400.42,92.82,92.82,0,0,0,456,415.89l5.25,4.69,5.52,5a154,154,0,0,1,20.71,22.92q9.39,12.7,9.39,32.32T485.1,513.94Z" transform="translate(-175.9 -301.35)"/><path class="cls-1" d="M607.6,367.9v.44c0,1.19,0,2.3,0,3.32a18.72,18.72,0,0,1-.33,3.07,14.26,14.26,0,0,1-.46,2.15,19.51,19.51,0,0,1-.83,2.22,10.18,10.18,0,0,1-3.93,4.65,10.82,10.82,0,0,1-10.28.53,11,11,0,0,1-3.82-3.15,13.2,13.2,0,0,1-2.52-6.4,66.67,66.67,0,0,1-.36-7V347.55a66.52,66.52,0,0,1,.36-7.08,13.14,13.14,0,0,1,2.52-6.35,10.57,10.57,0,0,1,3.79-3.19,10.26,10.26,0,0,1,4.65-1.1,10.41,10.41,0,0,1,9.59,6c.09.22.19.43.28.65s.2.43.29.65a14.83,14.83,0,0,1,.94,4.24c.1,1.43.14,2.93.14,4.49v2.67h-7.28v-5.1a11.17,11.17,0,0,0-.86-4.12,3.11,3.11,0,0,0-3.17-1.86,3.05,3.05,0,0,0-2.71,1.33,7.05,7.05,0,0,0-1.11,3.2l-.15,1.78c-.05.59-.07,1.19-.07,1.78v24.19c0,.59,0,1.18.07,1.78l.15,1.78a7.5,7.5,0,0,0,1.11,3.19,3,3,0,0,0,2.71,1.42,2.92,2.92,0,0,0,2.92-1.62,11.27,11.27,0,0,0,1-3.56c0-.43,0-.85,0-1.25s0-.8,0-1.18V370c0-.38,0-.75,0-1.13s0-.76,0-1.13v-2.19h7.28v2.39Z" transform="translate(-175.9 -301.35)"/><path class="cls-1" d="M662.42,384.6V360.25h-8V384.6H647.2v-54h7.21v22.09h8V330.64h7.2v54Z" transform="translate(-175.9 -301.35)"/><path class="cls-1" d="M709.86,384.6v-54h7.21v54Z" transform="translate(-175.9 -301.35)"/><path class="cls-1" d="M757.35,384.6v-54h7.21v46.44h12v7.52Z" transform="translate(-175.9 -301.35)"/><path class="cls-1" d="M815.42,384.6v-54H835v7.61h-12.4v14.64h8.87v7.52h-8.87v16.67H835v7.52Z" transform="translate(-175.9 -301.35)"/><rect class="cls-2" x="6.29" y="6.48" width="352.12" height="245.93"/><path class="cls-1" d="M226.67,623.55q-2.7,4.08-9.41,4.08H207v-54h10.24q6.7,0,9.41,4.09t2.7,11.21v23.45C229.37,617.12,228.47,620.82,226.67,623.55Zm-4.51-33.13a22.06,22.06,0,0,0-.83-6.35q-.83-2.79-4.86-2.79h-2.24v38.83h2.24q4,0,4.86-2.87a22.6,22.6,0,0,0,.83-6.35Z" transform="translate(-175.9 -301.35)"/><path class="cls-1" d="M249.21,627.63v-54h19.61v7.61h-12.4v14.64h8.87v7.53h-8.87v16.66h12.4v7.52Z" transform="translate(-175.9 -301.35)"/><path class="cls-1" d="M288.12,627.63v-54h7.21v46.44h12v7.52Z" transform="translate(-175.9 -301.35)"/><path class="cls-1" d="M326,627.63v-54h7.21v54Z" transform="translate(-175.9 -301.35)"/><path class="cls-1" d="M375.41,619.5a11.69,11.69,0,0,1-2.85,5.47,7,7,0,0,1-4,2.3,29,29,0,0,1-4.62.36h-10.6v-54h9.95c4.14,0,7.18,1.21,9.12,3.6s2.92,5.87,2.92,10.4a19.56,19.56,0,0,1-1.08,6.8,12.34,12.34,0,0,1-4,5.25,10,10,0,0,1,4.72,5.63,25.83,25.83,0,0,1,1.12,7.8A29.21,29.21,0,0,1,375.41,619.5Zm-8.25-36.32c-.68-1.27-2-1.9-4-1.9h-2.67V596H362q3.6,0,4.86-2.14a11.57,11.57,0,0,0,1.27-5.87A10.24,10.24,0,0,0,367.16,583.18Zm1.69,27.75c0-.46-.06-.91-.11-1.34a15.36,15.36,0,0,0-.68-2.71,4.93,4.93,0,0,0-1.41-2.14,3.8,3.8,0,0,0-1.69-.93,14.08,14.08,0,0,0-1.84-.28h-2.6v16.58h2.67c2.31,0,3.83-.73,4.58-2.18a12.54,12.54,0,0,0,1.12-5.67C368.89,611.83,368.87,611.39,368.85,610.93Z" transform="translate(-175.9 -301.35)"/><path class="cls-1" d="M395.75,627.63v-54h19.61v7.61H403v14.64h8.87v7.53H403v16.66h12.4v7.52Z" transform="translate(-175.9 -301.35)"/><path class="cls-1" d="M449.88,627.63l-4.62-22.49h-3.39v22.49h-7.2v-54h10.09q7,0,9.51,4.29t2.53,11.49a30.27,30.27,0,0,1-.87,7.52,11.43,11.43,0,0,1-4,6l5.55,24.67Zm-.33-39.47c0-.44-.06-.89-.11-1.38a10.18,10.18,0,0,0-.28-1.74,14.67,14.67,0,0,0-.51-1.58,3,3,0,0,0-1.87-1.9,10.91,10.91,0,0,0-2.6-.28h-2.31v16.26h2.31a10.91,10.91,0,0,0,2.6-.28,3,3,0,0,0,1.87-1.9,15.43,15.43,0,0,0,.51-1.58,10.18,10.18,0,0,0,.28-1.74c.05-.43.09-.88.11-1.34s0-.87,0-1.25S449.58,588.59,449.55,588.16Z" transform="translate(-175.9 -301.35)"/><path class="cls-1" d="M494.29,627.63l-1.66-11.89h-7.78l-1.59,11.89h-7.14l7.79-54h9.44l8.37,54ZM488.6,586.7l-2.74,21.52h5.69Z" transform="translate(-175.9 -301.35)"/><path d="M412.3,524.41H384.4l-24.74-66.63-23.34,66.63H308.75l36.47-95.83-34.88-87.82h27.8l21.77,58.85,20.33-58.85h27.65l-33.53,87.82Z" transform="translate(-175.9 -301.35)"/></svg>